<svg width="100%" height="100%" id="svg" viewBox="0 0 1440 690" xmlns="http://www.w3.org/2000/svg" class="transition duration-300 ease-in-out delay-150"><defs><linearGradient id="gradient" x1="0%" y1="50%" x2="100%" y2="50%"><stop offset="5%" stop-color="#F78DA7"></stop><stop offset="95%" stop-color="#8ED1FC"></stop></linearGradient></defs><path d="M 0,700 L 0,175 C 60.68773617313636,192.61800068704912 121.37547234627272,210.23600137409827 193,199 C 264.6245276537273,187.76399862590173 347.18584678804535,147.67399519065614 425,148 C 502.81415321195465,148.32600480934386 575.8811405015459,189.0680178632772 644,211 C 712.1188594984541,232.9319821367228 775.2895912057712,236.05393335623498 829,217 C 882.7104087942288,197.94606664376502 926.9604946753693,156.71624871178287 999,170 C 1071.0395053246307,183.28375128821713 1170.8684300927516,251.08107179663347 1249,261 C 1327.1315699072484,270.91892820336653 1383.5657849536242,222.95946410168327 1440,175 L 1440,700 L 0,700 Z" stroke="none" stroke-width="0" fill="url(#gradient)" fill-opacity="0.53" class="transition-all duration-300 ease-in-out delay-150 path-0"></path><defs><linearGradient id="gradient" x1="0%" y1="50%" x2="100%" y2="50%"><stop offset="5%" stop-color="#F78DA7"></stop><stop offset="95%" stop-color="#8ED1FC"></stop></linearGradient></defs><path d="M 0,700 L 0,408 C 67.30195809000342,455.0834764685675 134.60391618000685,502.166952937135 194,494 C 253.39608381999315,485.833047062865 304.886293369976,422.4156647200274 387,384 C 469.113706630024,345.5843352799726 581.8509103400893,332.1703881827551 652,344 C 722.1490896599107,355.8296118172449 749.7100652696668,392.9027825489523 802,413 C 854.2899347303332,433.0972174510477 931.3088285812435,436.2184816214359 1007,417 C 1082.6911714187565,397.7815183785641 1157.054620405359,356.22329096530405 1229,351 C 1300.945379594641,345.77670903469595 1370.4726897973205,376.888354517348 1440,408 L 1440,700 L 0,700 Z" stroke="none" stroke-width="0" fill="url(#gradient)" fill-opacity="1" class="transition-all duration-300 ease-in-out delay-150 path-1"></path></svg>